<svg
  width="23"
  height="23"
  viewBox="0 0 1024 1024"
  fill="none"
  xmlns="http://www.w3.org/2000/svg"
>
  <path
    fill-rule="evenodd"
    clip-rule="evenodd"
    d="M300 462.4h424.8v48H300v-48zM300 673.6H560v48H300v-48z"
    fill="currentColor"
  />
  <path
    d="M818.4 981.6H205.6c-12.8 0-24.8-2.4-36.8-7.2-11.2-4.8-21.6-11.2-29.6-20-8.8-8.8-15.2-18.4-20-29.6-4.8-12-7.2-24-7.2-36.8V250.4c0-12.8 2.4-24.8 7.2-36.8 4.8-11.2 11.2-21.6 20-29.6 8.8-8.8 18.4-15.2 29.6-20 12-4.8 24-7.2 36.8-7.2h92.8v47.2H205.6c-25.6 0-47.2 20.8-47.2 47.2v637.6c0 25.6 20.8 47.2 47.2 47.2h612c25.6 0 47.2-20.8 47.2-47.2V250.4c0-25.6-20.8-47.2-47.2-47.2H725.6v-47.2h92.8c12.8 0 24.8 2.4 36.8 7.2 11.2 4.8 21.6 11.2 29.6 20 8.8 8.8 15.2 18.4 20 29.6 4.8 12 7.2 24 7.2 36.8v637.6c0 12.8-2.4 24.8-7.2 36.8-4.8 11.2-11.2 21.6-20 29.6-8.8 8.8-18.4 15.2-29.6 20-12 5.6-24 8-36.8 8z"
    fill="currentColor"
  />
  <path
    d="M620 225.6h-216c-12.8 0-24.8 4.8-34.4 14.4-9.6 9.6-14.4 21.6-14.4 34.4v480c0 12.8 4.8 24.8 14.4 34.4 9.6 9.6 21.6 14.4 34.4 14.4h216c12.8 0 24.8-4.8 34.4-14.4 9.6-9.6 14.4-21.6 14.4-34.4v-480c0-12.8-4.8-24.8-14.4-34.4-9.6-9.6-21.6-14.4-34.4-14.4zM640 720c0 8.8-7.2 16-16 16h-448c-8.8 0-16-7.2-16-16v-384c0-8.8 7.2-16 16-16h448c8.8 0 16 7.2 16 16v384z"
    fill="currentColor"
  />
  <path
    d="M512 122.4c-23.2 0-44.8 9.6-60.8 25.6-16.8 16.8-25.6 37.6-25.6 60.8s9.6 44.8 25.6 60.8c16 16 37.6 25.6 60.8 25.6 23.2 0 44.8-9.6 60.8-25.6 16.8-16 25.6-37.6 25.6-60.8s-9.6-44.8-25.6-60.8c-16-16-37.6-25.6-60.8-25.6z"
    fill="currentColor"
  />
</svg>
